<svg xmlns="http://www.w3.org/2000/svg" width="72.248" height="72.248" viewBox="0 0 72.248 72.248">
  <g id="Icon_ion-qr-code-outline" data-name="Icon ion-qr-code-outline" transform="translate(1.125 1.125)">
    <path id="Path_13" data-name="Path 13" d="M24.941,23.625H35.473a1.316,1.316,0,0,1,1.316,1.316V35.473a1.316,1.316,0,0,1-1.316,1.316H24.941a1.316,1.316,0,0,1-1.316-1.316V24.941A1.316,1.316,0,0,1,24.941,23.625Z" transform="translate(23.767 23.767)" fill="#fff" stroke="#fff" stroke-width="0.07"/>
    <path id="Path_14" data-name="Path 14" d="M20.441,19.125h7.9a1.316,1.316,0,0,1,1.316,1.316v7.9a1.316,1.316,0,0,1-1.316,1.316h-7.9a1.316,1.316,0,0,1-1.316-1.316v-7.9A1.316,1.316,0,0,1,20.441,19.125Z" transform="translate(17.735 17.735)" fill="#fff" stroke="#fff" stroke-width="0.07"/>
    <path id="Path_15" data-name="Path 15" d="M30.566,29.25h7.9a1.316,1.316,0,0,1,1.316,1.316v7.9a1.316,1.316,0,0,1-1.316,1.316h-7.9a1.316,1.316,0,0,1-1.316-1.316v-7.9A1.316,1.316,0,0,1,30.566,29.25Z" transform="translate(31.306 31.306)" fill="#fff" stroke="#fff" stroke-width="0.07"/>
    <path id="Path_16" data-name="Path 16" d="M31.691,19.125h5.266a1.316,1.316,0,0,1,1.316,1.316v5.266a1.316,1.316,0,0,1-1.316,1.316H31.691a1.316,1.316,0,0,1-1.316-1.316V20.441A1.316,1.316,0,0,1,31.691,19.125Z" transform="translate(32.814 17.735)" fill="#fff" stroke="#fff" stroke-width="0.07"/>
    <path id="Path_17" data-name="Path 17" d="M20.441,30.375h5.266a1.316,1.316,0,0,1,1.316,1.316v5.266a1.316,1.316,0,0,1-1.316,1.316H20.441a1.316,1.316,0,0,1-1.316-1.316V31.691A1.316,1.316,0,0,1,20.441,30.375Z" transform="translate(17.735 32.814)" fill="#fff" stroke="#fff" stroke-width="0.07"/>
    <path id="Path_18" data-name="Path 18" d="M24.941,6.75H35.473a1.316,1.316,0,0,1,1.316,1.316V18.6a1.316,1.316,0,0,1-1.316,1.316H24.941A1.316,1.316,0,0,1,23.625,18.6V8.066A1.316,1.316,0,0,1,24.941,6.75Z" transform="translate(23.767 1.149)" fill="#fff" stroke="#fff" stroke-width="0.07"/>
    <path id="Path_19" data-name="Path 19" d="M22.883,3.375h23.7a2.633,2.633,0,0,1,2.633,2.633V29.7a2.633,2.633,0,0,1-2.633,2.633h-23.7A2.633,2.633,0,0,1,20.25,29.7V6.008A2.633,2.633,0,0,1,22.883,3.375Z" transform="translate(19.243 -3.375)" fill="none" stroke="#fff" stroke-linecap="round" stroke-linejoin="round" stroke-width="2.25"/>
    <path id="Path_20" data-name="Path 20" d="M8.066,6.75H18.6a1.316,1.316,0,0,1,1.316,1.316V18.6A1.316,1.316,0,0,1,18.6,19.914H8.066A1.316,1.316,0,0,1,6.75,18.6V8.066A1.316,1.316,0,0,1,8.066,6.75Z" transform="translate(1.149 1.149)" fill="#fff" stroke="#fff" stroke-width="0.07"/>
    <path id="Path_21" data-name="Path 21" d="M6.008,3.375H29.7a2.633,2.633,0,0,1,2.633,2.633V29.7A2.633,2.633,0,0,1,29.7,32.337H6.008A2.633,2.633,0,0,1,3.375,29.7V6.008A2.633,2.633,0,0,1,6.008,3.375Z" transform="translate(-3.375 -3.375)" fill="none" stroke="#fff" stroke-linecap="round" stroke-linejoin="round" stroke-width="2.25"/>
    <path id="Path_22" data-name="Path 22" d="M8.066,23.625H18.6a1.316,1.316,0,0,1,1.316,1.316V35.473A1.316,1.316,0,0,1,18.6,36.789H8.066A1.316,1.316,0,0,1,6.75,35.473V24.941A1.316,1.316,0,0,1,8.066,23.625Z" transform="translate(1.149 23.767)" fill="#fff" stroke="#fff" stroke-width="0.07"/>
    <path id="Path_23" data-name="Path 23" d="M6.008,20.25H29.7a2.633,2.633,0,0,1,2.633,2.633v23.7A2.633,2.633,0,0,1,29.7,49.212H6.008a2.633,2.633,0,0,1-2.633-2.633v-23.7A2.633,2.633,0,0,1,6.008,20.25Z" transform="translate(-3.375 19.243)" fill="none" stroke="#fff" stroke-linecap="round" stroke-linejoin="round" stroke-width="2.25"/>
  </g>
</svg>
